<?xml version="1.0" encoding="utf-8"?>
<!-- Generator: Adobe Illustrator 16.0.4, SVG Export Plug-In . SVG Version: 6.00 Build 0)  -->
<!DOCTYPE svg PUBLIC "-//W3C//DTD SVG 1.1//EN" "http://www.w3.org/Graphics/SVG/1.1/DTD/svg11.dtd">
<svg version="1.1" id="Layer_1" xmlns="http://www.w3.org/2000/svg" xmlns:xlink="http://www.w3.org/1999/xlink" x="0px" y="0px"
	 width="615px" height="744px" viewBox="287.775 46.445 615 744" enable-background="new 287.775 46.445 615 744"
	 xml:space="preserve">
<g>
	<rect x="399.217" y="64.236" fill="#1D1D1B" width="393.132" height="393.181"/>
	<path fill="#FFFFFF" d="M444.24,175.372c14.751,4.372,31.12,10.169,48.181,11.606c12.165,1.047,35.678-0.156,46.725,1.215
		c10.013,1.209-7.421-6.146-8.359-21.197c-0.606-9.977,4.943-19.857,10.783-27.999c15.827-22.124,34.366-35.053,54.085-49.846
		c32.569,19.153,74.501,52.931,58.927,97.484c-0.68,1.895,10.728,1.257,16.964,2.147c23.771,3.416,49.629-2.351,72.396-9.225
		c-21.829,18.503-45.138,38.396-53.659,66.281c47.141,4.119,52.829,65.625,58.902,103.071c-35.72,15.743-83.581,41.794-112.494,3.14
		c-20.656,17.673-27.481,55.396-36.827,79.913c-8.641-28.816-15.526-61.109-37.86-82.019c-8.359,42.011-83.546,10.645-117.774-4.197
		c2.411-36.598,11.281-94.935,57.825-95.717C498.042,218.567,465.732,195.481,444.24,175.372L444.24,175.372z M564.046,181.74
		c-1.684-2.099-5.195-5.737-5.31-3.903c-2.881,38.125-49.269,21.462-74.531,20.686c20.367,15.581,43.357,62.036,22.989,68.699
		c-5.521,1.828,13.675,9.122,22.178,8.431c19.772-1.702,45.233-12.189,63.13-21.39C590.596,227.804,581.655,203.773,564.046,181.74
		L564.046,181.74z M597.764,215.332c0.938,3.271,1.287-2.484-0.018,2.086c6.53-24.577,18.299-58.92,49.443-54.657
		c-2.243-26.123-31.884-45.774-51.524-61.019c-20.746,18.504-42.611,35.077-51.529,61.019
		C568.894,159.965,590.428,189.552,597.764,215.332L597.764,215.332z M603.008,255.309c23.903,17.932,54.603,23.759,83.101,17.878
		c-24.139-21.264,2.55-54.741,19.935-71.519c-13.368,0.631-29.376,3.5-42.937,0.349c-7.24-1.647-14.48-1.498-21.329-5.394
		c-7.975-4.558-7.133-18.227-9.898-15.828C611.385,198.518,605.082,228.002,603.008,255.309L603.008,255.309z M637.676,286.91
		c11.696,10.145,20.692,21.504,24.974,35.828c7.445,24.686-7.372,24.078-3.571,28.907c15.473,19.797,51.565-2.303,75.396-11.179
		c-1.407-26.977-6.627-57.261-27.325-75.729c-2.622,35.119-46.652,21.131-71.614,18.588
		C635.168,283.278,636.269,285.689,637.676,286.91L637.676,286.91z M600.759,269.02c-4.943-4.516-1.811-1.732-4.751,0.421
		c-22.178,16.2-46.755,37.368-50.82,64.735c30.669-8.353,44.597,28.619,53.629,51.53c5.033-10.83,22.178-60.075,52.558-53.629
		C647.784,306.4,620.02,286.567,600.759,269.02L600.759,269.02z M555.568,288.811c1.082-1.064,1.503-1.6,2.23-3.001
		c-23.608,6.104-74.693,4.648-71.35-15.304c0.469-2.862-3.747-0.565-6.272,1.726c-3.908,3.523-22.827,43.015-21.216,67.165
		c23.977,7.799,52.168,25.526,77.821,14.751C516.906,332.932,538.772,305.612,555.568,288.811L555.568,288.811z"/>
	<path fill="#1D1D1B" d="M338.835,509.632c0-10.181-1.546-9.741-10.818-11.611v-2.418h24.842l21.654,60.399h0.211l21.209-60.399
		h14.775v73.63h-10.933v-65.108h-0.234l-22.966,65.108h-7.751l-22.875-64.399h-0.211v64.399h-6.903V509.632z"/>
	<path fill="#1D1D1B" d="M452.268,551.294c0,7.421-3.818,13.254-10.188,13.254c-4.028,0-6.536-3.513-6.536-8.546
		c0-10.379,12.784-10.938,16.724-11.047V551.294z M452.268,569.232h10.95v-33.255c0-10.837-2.43-18.816-17.95-18.816
		c-15.737,0-19.369,7.649-20.554,14.896h13.019c0-4.774,0.428-11.149,7.655-11.149c6.886,0,6.886,7.674,6.886,14.541v5.544
		c-7.006,0.235-28.751,1.456-28.751,16.887c0,6.434,6.104,12.574,14.631,12.574c8.425,0,12.153-5.364,14.108-7.686v6.471h0.006
		V569.232z"/>
	<path fill="#1D1D1B" d="M480.597,532.609c0-7.679-1.858-9.531-8.737-9.735v-2.165l19.676-3.548v13.993h0.234
		c1.636-3.824,7.415-13.993,18.281-13.993c9.929,0,13.2,7.006,13.2,15.448v36.623h-10.933V540.92c0-8.641,0-16.29-7.307-16.29
		c-7.24,0-13.482,10.163-13.482,17.914v26.688h-10.933V532.609z"/>
	<path fill="#1D1D1B" d="M575.767,567.818c-3.98,1.414-6.477,2.635-15.569,2.635c-15.286,0-24.378-10.843-24.378-27.344
		c0-14.985,6.121-25.937,21.763-25.937c12.147,0,20.115,6.14,20.115,15.01h-12.881c0-4.498-1.101-11.263-7.872-11.263
		c-7.493,0-9.11,8.1-9.11,18.563c0,16.2,7.438,25.07,17.421,25.07c3.374,0,7.848-0.68,10.512-1.527V567.818z"/>
	<path fill="#1D1D1B" d="M588.444,507.521c0-7.745-1.87-9.598-8.546-9.91v-2.207l19.479-2.736v38.631h0.234
		c1.858-4.486,7.102-14.132,18.124-14.132c12.479,0,13.459,10.5,13.459,18.287v33.784h-10.938V537.09c0-5.395,0-12.454-7.98-12.454
		c-6.344,0-12.898,8.594-12.898,18.563v26.039h-10.933V507.521L588.444,507.521z"/>
	<path fill="#1D1D1B" d="M657.671,533.68c0-4.155,2.267-12.772,10.481-12.772c9.555,0,9.741,10.247,9.741,12.772H657.671z
		 M687.847,562.665c-1.847,0.77-5.665,1.87-10.271,1.87c-15.406,0-19.904-15.562-19.904-26.478h31.161
		c0-7.3-1.551-20.902-20.229-20.902c-14.661,0-22.966,7.589-22.966,24.836c0,18.269,10.072,28.438,26.79,28.438
		c7.522,0,13.368-2.188,15.419-2.94V562.665L687.847,562.665z"/>
	<path fill="#1D1D1B" d="M730.615,527.282c-1.63-1.131-6.892-5.298-13.02-5.298c-3.481,0-7.625,1.311-7.625,6.02
		c0,10.396,23.94,10.625,23.94,27.343c0,10.723-8.906,15.088-19.707,15.088c-6.675,0-11.468-1.305-13.999-1.984v-8.497
		c3.163,2.146,8.292,5.688,14.444,5.688c6.879,0,9.411-3.542,9.411-7.342c0-10.71-23.946-11.366-23.946-26.466
		c0-7.884,5.334-14.673,18.228-14.673c5.58,0,10.421,1.449,12.268,1.876v8.245H730.615z"/>
	<path fill="#1D1D1B" d="M775.897,569.557c-2.424,0.457-4.932,0.89-7.331,0.89c-10.506,0-16.627-1.665-16.627-14.095v-33.598h-8.527
		v-4.384h8.527v-8.647l10.956-9.736v18.39h14.312v4.384h-14.312v31.812c0,7.661,0.518,11.07,8.942,11.07
		c1.359,0,2.736-0.114,4.053-0.469v4.384H775.897z"/>
	<path fill="#1D1D1B" d="M795.494,533.68c0-4.155,2.291-12.772,10.481-12.772c9.489,0,9.718,10.247,9.718,12.772H795.494z
		 M825.664,562.665c-1.864,0.77-5.689,1.87-10.271,1.87c-15.431,0-19.898-15.562-19.898-26.478h31.138
		c0-7.3-1.533-20.902-20.224-20.902c-14.631,0-22.959,7.589-22.959,24.836c0,18.269,10.078,28.438,26.766,28.438
		c7.565,0,13.368-2.188,15.449-2.94V562.665z"/>
	<path fill="#1D1D1B" d="M838.99,532.609c0-7.679-1.726-9.531-8.671-9.735v-2.165l19.609-3.548V531.6h0.205
		c1.569-5.003,4.937-14.438,13.698-14.438c1.961,0,4.041,0.198,5.894,0.565v10.397c-1.744-0.56-3.692-1.312-5.557-1.312
		c-11.064,0-14.252,8.647-14.252,16.297v26.135h-10.933L838.99,532.609L838.99,532.609z"/>
	<path fill="#1D1D1B" d="M307.469,602.571c0-10.157-1.546-9.748-10.843-11.624v-2.363h24.842l21.654,60.339h0.217l21.21-60.339
		h14.763v73.629h-10.927V597.08h-0.24l-22.966,65.139h-7.745l-22.875-64.453h-0.205v64.453h-6.885V602.571z"/>
	<path fill="#1D1D1B" d="M402.843,626.595c0-4.144,2.285-12.778,10.487-12.778c9.501,0,9.735,10.283,9.735,12.778H402.843z
		 M433.019,655.598c-1.87,0.788-5.713,1.87-10.253,1.87c-15.425,0-19.917-15.545-19.917-26.429h31.162
		c0-7.354-1.521-20.921-20.248-20.921c-14.637,0-22.947,7.534-22.947,24.812c0,18.293,10.073,28.432,26.784,28.432
		c7.564,0,13.35-2.171,15.425-2.946v-4.817H433.019z"/>
	<path fill="#1D1D1B" d="M472.401,662.514c-2.411,0.408-4.937,0.848-7.354,0.848c-10.487,0-16.604-1.588-16.604-14.096v-33.604
		h-8.551v-4.348h8.551v-8.647l10.933-9.729v18.383h14.324v4.354h-14.324v31.872c0,7.637,0.548,11.047,8.973,11.047
		c1.311,0,2.742-0.114,4.053-0.433V662.514z"/>
	<path fill="#1D1D1B" d="M489.239,625.549c0-7.674-1.756-9.538-8.642-9.742v-2.177l19.599-3.512v14.42h0.186
		c1.546-5.033,4.943-14.42,13.693-14.42c1.967,0,4.022,0.21,5.905,0.541v10.397c-1.738-0.541-3.729-1.293-5.574-1.293
		c-11.071,0-14.216,8.629-14.216,16.267v26.183h-10.957v-36.664H489.239z"/>
	<path fill="#1D1D1B" d="M537.49,636.775c0-9.615,0.764-22.965,11.553-22.965c10.632,0,11.611,12.898,11.611,22.965
		c0,10.963-0.865,22.899-11.611,22.899C538.261,659.669,537.49,645.868,537.49,636.775z M549.043,663.361
		c16.2,0,23.645-8.726,23.645-26.586c0-15.731-7.793-26.657-23.645-26.657c-15.96,0-23.592,8.425-23.592,26.657
		C525.451,652.122,531.471,663.361,549.043,663.361z"/>
	<path fill="#1D1D1B" d="M598.365,635.675c0-5.725,1.004-19.664,10.849-19.664c9.754,0,10.626,12.039,10.626,19.923
		c0,8.053-1.005,21.528-10.53,21.528c-9.699,0-10.938-11.275-10.938-17.301v-4.486H598.365z M587.457,684.48h10.914v-29.057h0.229
		c2.003,3.439,5.244,7.932,13.783,7.932c15.743,0,19.46-14.174,19.46-27.422c0-13.801-5.13-25.822-19.015-25.822
		c-6.783,0-11.702,5.551-14.09,8.84h-0.265v-8.84l-19.568,3.506v2.184c6.79,0.198,8.546,2.057,8.546,9.729v58.95H587.457z"/>
	<path fill="#1D1D1B" d="M653.052,636.775c0-9.615,0.771-22.965,11.606-22.965c10.626,0,11.6,12.898,11.6,22.965
		c0,10.963-0.871,22.899-11.6,22.899C653.828,659.669,653.052,645.868,653.052,636.775z M664.664,663.361
		c16.183,0,23.621-8.726,23.621-26.586c0-15.731-7.775-26.657-23.621-26.657c-15.96,0-23.639,8.425-23.639,26.657
		C641.013,652.122,647.039,663.361,664.664,663.361z"/>
	<path fill="#1D1D1B" d="M701.395,600.49c0-7.812-1.852-9.646-8.256-9.965v-2.164l19.194-2.736v76.594h-10.938V600.49z"/>
	<path fill="#1D1D1B" d="M731.835,625.549c0-7.674-1.786-9.538-8.449-9.742v-2.177l19.364-3.512v52.101h-10.909v-36.67H731.835z
		 M730.615,594.591c0-3.746,3.079-6.795,6.892-6.795c3.698,0,7.012,2.971,7.012,6.795c0,3.837-3.295,6.886-7.102,6.886
		C733.694,601.477,730.615,598.416,730.615,594.591z"/>
	<path fill="#1D1D1B" d="M787.07,662.514c-2.454,0.408-4.913,0.848-7.337,0.848c-10.529,0-16.646-1.588-16.646-14.096v-33.604
		h-8.521v-4.348h8.521v-8.647l10.957-9.729v18.383h14.336v4.354h-14.336v31.872c0,7.637,0.535,11.047,8.936,11.047
		c1.348,0,2.736-0.114,4.083-0.433v4.354H787.07z"/>
	<path fill="#1D1D1B" d="M822.483,644.25c0,7.427-3.812,13.218-10.156,13.218c-4.071,0-6.579-3.487-6.579-8.539
		c0-10.367,12.772-10.956,16.735-11.04V644.25L822.483,644.25z M822.483,662.219h10.938v-33.285c0-10.86-2.388-18.815-17.95-18.815
		c-15.719,0-19.321,7.648-20.536,14.883h13.025c0-4.847,0.433-11.19,7.649-11.19c6.885,0,6.885,7.673,6.885,14.588v5.557
		c-7.018,0.229-28.78,1.426-28.78,16.887c0,6.446,6.14,12.525,14.679,12.525c8.407,0,12.147-5.34,14.102-7.625v6.482h-0.012V662.219
		z"/>
	<path fill="#1D1D1B" d="M850.788,625.549c0-7.674-1.858-9.538-8.714-9.742v-2.177l19.664-3.512V624.1h0.217
		c1.654-3.855,7.475-13.981,18.275-13.981c9.922,0,13.266,7.005,13.266,15.431v36.67h-10.944v-28.39c0-8.636,0-16.267-7.349-16.267
		c-7.217,0-13.465,10.175-13.465,17.926v26.725h-10.956v-36.671h0.006V625.549z"/>
	<path fill="#1D1D1B" d="M419.885,726.558c0,14.637-1.287,29.502-26.009,29.502c-19.267,0-26.242-9.062-26.242-25.371v-35.017
		c0-9.177-0.325-9.272-10.957-10.674v-2.43l22.96-2.514v45.132c0,12.478,0,25.737,15.659,25.737
		c16.717,0,16.717-12.153,16.717-23.182v-46.497h7.866v45.312H419.885z"/>
	<path fill="#1D1D1B" d="M438.689,718.198c0-7.601-1.846-9.489-8.731-9.712v-2.146l19.664-3.518v13.999h0.259
		c1.618-3.866,7.444-13.999,18.239-13.999c9.971,0,13.248,6.981,13.248,15.382v36.683h-10.909v-28.317
		c0-8.642,0-16.327-7.378-16.327c-7.169,0-13.465,10.163-13.465,17.986v26.658h-10.933v-36.688H438.689z"/>
	<path fill="#1D1D1B" d="M500.069,718.198c0-7.601-1.75-9.489-8.431-9.712v-2.146l19.357-3.518v52.059h-10.938v-36.683H500.069z
		 M498.878,687.289c0-3.746,3.043-6.808,6.88-6.808c3.704,0,7.006,2.965,7.006,6.808c0,3.801-3.302,6.867-7.127,6.867
		C501.921,694.156,498.878,691.09,498.878,687.289z"/>
	<path fill="#1D1D1B" d="M529.271,716.063c-2.725-7.36-3.933-9.236-11.354-9.892v-2.178h18.263l15.274,38.517l14.896-38.517h6.229
		l-19.598,50.875h-7.962L529.271,716.063z"/>
	<path fill="#1D1D1B" d="M591.059,719.287c0-4.132,2.291-12.767,10.47-12.767c9.55,0,9.76,10.295,9.76,12.767H591.059z
		 M621.24,748.326c-1.852,0.728-5.688,1.822-10.276,1.822c-15.4,0-19.898-15.539-19.898-26.447h31.161
		c0-7.331-1.551-20.885-20.211-20.885c-14.667,0-22.983,7.517-22.983,24.787c0,18.251,10.048,28.456,26.778,28.456
		c7.547,0,13.35-2.188,15.43-2.959V748.326z"/>
	<path fill="#1D1D1B" d="M634.585,718.198c0-7.601-1.727-9.489-8.642-9.712v-2.146l19.574-3.518v14.408h0.234
		c1.516-5.004,4.895-14.408,13.675-14.408c1.93,0,4.022,0.204,5.887,0.541v10.409c-1.768-0.565-3.746-1.347-5.58-1.347
		c-11.041,0-14.229,8.678-14.229,16.309v26.152h-10.933L634.585,718.198L634.585,718.198z"/>
	<path fill="#1D1D1B" d="M702.399,712.853c-1.659-1.101-6.891-5.238-13.031-5.238c-3.487,0-7.661,1.312-7.661,6.014
		c0,10.386,23.952,10.638,23.952,27.319c0,10.734-8.828,15.118-19.664,15.118c-6.675,0-11.498-1.347-14.012-1.948v-8.575
		c3.199,2.177,8.329,5.736,14.438,5.736c6.903,0,9.399-3.56,9.399-7.342c0-10.746-23.934-11.39-23.934-26.508
		c0-7.836,5.382-14.612,18.245-14.612c5.58,0,10.409,1.406,12.273,1.863v8.173H702.399z"/>
	<path fill="#1D1D1B" d="M720.644,718.198c0-7.601-1.731-9.489-8.376-9.712v-2.146l19.339-3.518v52.059h-10.975v-36.683H720.644z
		 M719.472,687.289c0-3.746,3.013-6.808,6.892-6.808c3.686,0,6.976,2.965,6.976,6.808c0,3.801-3.29,6.867-7.103,6.867
		C722.49,694.156,719.472,691.09,719.472,687.289z"/>
	<path fill="#1D1D1B" d="M775.897,755.212c-2.424,0.421-4.932,0.854-7.331,0.854c-10.506,0-16.627-1.63-16.627-14.084V708.36h-8.527
		v-4.366h8.527v-8.653l10.956-9.682v18.342h14.312v4.365h-14.312v31.842c0,7.667,0.518,11.064,8.942,11.064
		c1.359,0,2.736-0.145,4.053-0.427v4.366H775.897z"/>
	<path fill="#1D1D1B" d="M817.546,758.976c-3.398,8.774-7.204,18.167-19.13,18.167c-11.912,0-14.751-9.038-15.22-13.999h12.604
		c0,3.308,0.541,8.142,5.803,8.142c4.805,0,7.234-5.586,8.738-9.525l1.442-3.746l-17.649-41.956c-2.58-6.471-4.107-9.543-11.69-9.88
		v-2.171h18.594l16.225,40.23l15.726-40.23h6.212L817.546,758.976z"/>
</g>
</svg>
